name D:\school\WTK\thesis\model\3dpredictsim\Results\test_WL_v2\Fal_s1_bCst_PF_Gefen2001_ls135_k_nonl_kmtp_ig24.mot
datacolumns 128
datarows 4
range 1.83840324 1.87517130
endheader
time	pelvis_tilt	pelvis_list	pelvis_rotation	pelvis_tx	pelvis_ty	pelvis_tz	hip_flexion_l	hip_adduction_l	hip_rotation_l	hip_flexion_r	hip_adduction_r	hip_rotation_r	knee_angle_l	knee_angle_r	ankle_angle_l	ankle_angle_r	subtalar_angle_l	subtalar_angle_r	tmt_angle_l	tmt_angle_r	mtp_angle_l	mtp_angle_r	lumbar_extension	lumbar_bending	lumbar_rotation	arm_flex_l	arm_add_l	arm_rot_l	arm_flex_r	arm_add_r	arm_rot_r	elbow_flex_l	elbow_flex_r	pro_sup_l	pro_sup_r	glut_med1_l/activation	glut_med2_l/activation	glut_med3_l/activation	glut_min1_l/activation	glut_min2_l/activation	glut_min3_l/activation	semimem_l/activation	semiten_l/activation	bifemlh_l/activation	bifemsh_l/activation	sar_l/activation	add_long_l/activation	add_brev_l/activation	add_mag1_l/activation	add_mag2_l/activation	add_mag3_l/activation	tfl_l/activation	pect_l/activation	grac_l/activation	glut_max1_l/activation	glut_max2_l/activation	glut_max3_l/activation	iliacus_l/activation	psoas_l/activation	quad_fem_l/activation	gem_l/activation	peri_l/activation	rect_fem_l/activation	vas_med_l/activation	vas_int_l/activation	vas_lat_l/activation	med_gas_l/activation	lat_gas_l/activation	soleus_l/activation	tib_post_l/activation	flex_dig_l/activation	flex_hal_l/activation	tib_ant_l/activation	per_brev_l/activation	per_long_l/activation	per_tert_l/activation	ext_dig_l/activation	ext_hal_l/activation	ercspn_l/activation	intobl_l/activation	extobl_l/activation	glut_med1_r/activation	glut_med2_r/activation	glut_med3_r/activation	glut_min1_r/activation	glut_min2_r/activation	glut_min3_r/activation	semimem_r/activation	semiten_r/activation	bifemlh_r/activation	bifemsh_r/activation	sar_r/activation	add_long_r/activation	add_brev_r/activation	add_mag1_r/activation	add_mag2_r/activation	add_mag3_r/activation	tfl_r/activation	pect_r/activation	grac_r/activation	glut_max1_r/activation	glut_max2_r/activation	glut_max3_r/activation	iliacus_r/activation	psoas_r/activation	quad_fem_r/activation	gem_r/activation	peri_r/activation	rect_fem_r/activation	vas_med_r/activation	vas_int_r/activation	vas_lat_r/activation	med_gas_r/activation	lat_gas_r/activation	soleus_r/activation	tib_post_r/activation	flex_dig_r/activation	flex_hal_r/activation	tib_ant_r/activation	per_brev_r/activation	per_long_r/activation	per_tert_r/activation	ext_dig_r/activation	ext_hal_r/activation	ercspn_r/activation	intobl_r/activation	extobl_r/activation	
          1.83840324	         -2.92977942	          3.14597943	         -7.23624489	          2.29800404	          0.90776167	          0.00423224	         32.38719442	          3.50913120	         -3.45970953	        -12.84029405	         -2.79414442	          5.43397319	        -13.38751995	        -17.69851665	          8.55845477	         -9.00781896	         -7.07080498	         13.69130400	         -2.21927052	         18.93894201	         -0.08926847	         18.32208712	         -1.50352701	         -1.07987947	          2.44703269	         -7.66064516	        -13.70782323	          6.04062716	          4.64349192	        -13.45590562	         17.05636641	         16.11801293	         44.08378227	         86.51662706	         86.51662706	          0.05000003	          0.05000009	          0.05000061	          0.05000010	          0.05000011	          0.05000016	          0.20343518	          0.10413154	          0.15328394	          0.08946296	          0.05000084	          0.10516353	          0.21079255	          0.22136723	          0.14825355	          0.09389634	          0.05000077	          0.07251232	          0.12730566	          0.05000068	          0.09049108	          0.12554961	          0.06487325	          0.07251299	          0.57799664	          0.15965396	          0.13496987	          0.07251287	          0.06021862	          0.06021987	          0.06021950	          0.07251272	          0.07251299	          0.06615431	          0.06021408	          0.06021346	          0.06021445	          0.43769400	          0.20450713	          0.20520660	          0.20957197	          0.42556526	          0.22635204	          0.05000001	          0.11354941	          0.10516258	          0.10819566	          0.05132117	          0.05000085	          0.15831188	          0.12459905	          0.07637893	          0.05003848	          0.05270464	          0.05000526	          0.05000068	          0.07192534	          0.05000053	          0.05000143	          0.05093188	          0.06021396	          0.06024616	          0.23820557	          0.05000088	          0.05000246	          0.05002898	          0.05004929	          0.06021517	          0.37475074	          0.45669317	          0.05000121	          0.05000658	          0.05000120	          0.44389201	          0.18412201	          0.18184079	          0.16709594	          0.34906269	          0.42957857	          0.24433067	          0.28821634	          0.18807543	          0.25066382	          0.05000015	          0.05000030	          0.08084095	          0.05000035	          0.05000014	          0.05000065	          0.05000002	          0.07251399	          0.07251360	
          1.85065926	         -2.92989072	          3.21267279	         -7.58667988	          2.31726333	          0.90600662	          0.00389670	         31.72420156	          3.75712261	         -3.24665154	        -13.58213877	         -3.24017894	          5.21779527	        -14.31061856	        -18.17750520	          7.98136628	         -9.37398455	         -7.28459161	         14.34209644	         -2.56677155	         16.94159323	         -0.11367384	         20.00483741	         -1.22889934	         -1.20160830	          2.54493769	         -8.82407969	        -13.69678310	          6.08509795	          4.28879625	        -13.46653501	         17.37270737	         15.69538491	         45.37448726	         86.51662706	         86.51662706	          0.22582101	          0.22543864	          0.25279559	          0.20383299	          0.16000976	          0.23343653	          0.16892866	          0.09567229	          0.12728407	          0.10515226	          0.06023022	          0.08732585	          0.17503813	          0.18381922	          0.12310734	          0.12614343	          0.05000058	          0.06021480	          0.10572019	          0.05000223	          0.12444491	          0.10535394	          0.06021289	          0.06021347	          0.47995727	          0.13257375	          0.21328107	          0.06021330	          0.05000441	          0.05000544	          0.05000513	          0.06021319	          0.06021343	          0.05493327	          0.05000065	          0.05000058	          0.05000110	          0.51182341	          0.32839010	          0.19628756	          0.33822015	          0.53472777	          0.29200984	          0.05000007	          0.15348839	          0.08732498	          0.22360599	          0.05000066	          0.05000033	          0.25739924	          0.10346580	          0.06342403	          0.05000232	          0.05000042	          0.05000034	          0.05000118	          0.08731674	          0.05002478	          0.05043707	          0.05000148	          0.05000322	          0.05002759	          0.21082922	          0.08297397	          0.05000234	          0.05000370	          0.05000190	          0.05000208	          0.33127671	          0.51691179	          0.05000043	          0.05000116	          0.05000054	          0.36860754	          0.18599471	          0.18363770	          0.17271000	          0.29104715	          0.35671400	          0.21634519	          0.24446334	          0.15617448	          0.20814665	          0.05000013	          0.08585885	          0.10276917	          0.05000055	          0.05000020	          0.05000077	          0.05000074	          0.06021422	          0.06021392	
          1.86291528	         -2.92939164	          3.27708156	         -7.88755224	          2.33659346	          0.90439052	          0.00353638	         31.10313263	          3.97838857	         -3.04413327	        -14.25088397	         -3.67161974	          5.00685931	        -15.23845728	        -18.74286659	          7.12591163	         -9.67979030	         -7.49907849	         14.88713558	         -2.55476162	         14.53658512	         -0.17706412	         21.76320680	         -0.96812469	         -1.33797127	          2.63349447	         -9.94659082	        -13.68125717	          6.17660573	          3.89771849	        -13.47877220	         17.64986593	         15.29194186	         46.57229410	         86.51662706	         86.51662706	          0.29860457	          0.33977891	          0.37605796	          0.19190035	          0.23551957	          0.25547668	          0.14027510	          0.07944460	          0.10569426	          0.08731646	          0.05001425	          0.07251378	          0.14534836	          0.15264026	          0.10295342	          0.15793229	          0.05000063	          0.05000347	          0.08778848	          0.20788012	          0.19048098	          0.16967351	          0.05000013	          0.05000022	          0.39854732	          0.11008691	          0.17711535	          0.05000016	          0.08054708	          0.09134506	          0.10448511	          0.05000004	          0.05000016	          0.05000001	          0.05000021	          0.05000047	          0.05000040	          0.59536465	          0.32925159	          0.20275605	          0.49518266	          0.56620052	          0.36777967	          0.07270325	          0.12745382	          0.07251298	          0.19676207	          0.05000090	          0.05000034	          0.29169182	          0.08591676	          0.05266681	          0.05000256	          0.05000030	          0.05000025	          0.05000123	          0.07251483	          0.05000789	          0.05000062	          0.05000073	          0.05000125	          0.05000047	          0.17506905	          0.06890670	          0.05000134	          0.05000420	          0.05000210	          0.05000074	          0.30699006	          0.56404111	          0.05000032	          0.05000149	          0.05000067	          0.30608472	          0.20656732	          0.20250088	          0.19139367	          0.24168000	          0.29620850	          0.18014298	          0.20299792	          0.12968448	          0.17284115	          0.05000014	          0.10396747	          0.11072691	          0.05000134	          0.05798395	          0.05000074	          0.06475744	          0.05000073	          0.05000049	
          1.87517130	         -2.92886401	          3.33779198	         -8.13906809	          2.35580535	          0.90311556	          0.00314107	         30.62433422	          4.21585107	         -2.85439677	        -14.81624611	         -4.08307734	          4.80455442	        -16.38965986	        -19.39892344	          6.32060040	         -9.97448038	         -7.72583064	         15.32378931	         -2.51247742	         11.73730694	         -0.21178095	         23.49709876	         -0.73275698	         -1.49011573	          2.71488007	        -10.98753365	        -13.65559865	          6.28777449	          3.51269603	        -13.48686411	         17.92182261	         14.89116185	         47.61346675	         86.51662706	         86.51662706	          0.36130848	          0.38450546	          0.41813366	          0.17800949	          0.19557483	          0.23793655	          0.11648174	          0.06597020	          0.08776652	          0.07250597	          0.05000071	          0.06021426	          0.12069480	          0.16008137	          0.17962997	          0.18237641	          0.05000076	          0.05001367	          0.07946973	          0.25252643	          0.22821998	          0.20750770	          0.05000027	          0.05000026	          0.33094611	          0.09141428	          0.18283478	          0.05000018	          0.14235623	          0.14682307	          0.15813951	          0.05000007	          0.05000015	          0.05000002	          0.05000010	          0.05000056	          0.05000043	          0.63226019	          0.27340452	          0.16836494	          0.47514526	          0.59142296	          0.36925646	          0.08118930	          0.10583521	          0.06021339	          0.24206433	          0.05000053	          0.05000023	          0.24221806	          0.07134404	          0.05000099	          0.05000417	          0.05000049	          0.05000042	          0.05000050	          0.06021546	          0.09099843	          0.05000386	          0.05000377	          0.05000606	          0.05000820	          0.14537419	          0.05786573	          0.05000142	          0.05000556	          0.05000311	          0.05000161	          0.25491870	          0.56183704	          0.05000031	          0.05000118	          0.05000034	          0.25416685	          0.18366604	          0.18366600	          0.18366604	          0.20068641	          0.24596585	          0.14958725	          0.16856561	          0.10768763	          0.14352406	          0.05088352	          0.11252208	          0.10979375	          0.06016097	          0.11219137	          0.05000430	          0.08106214	          0.05000004	          0.05000007	
